<?xml version="1.0" standalone="no"?>
<!DOCTYPE svg PUBLIC "-//W3C//DTD SVG 20010904//EN"
 "http://www.w3.org/TR/2001/REC-SVG-20010904/DTD/svg10.dtd">
<svg version="1.0" xmlns="http://www.w3.org/2000/svg"
 width="300.000000pt" height="100.000000pt" viewBox="0 0 300.000000 100.000000"
 preserveAspectRatio="xMidYMid meet">
<metadata>
Created by potrace 1.16, written by Peter Selinger 2001-2019
</metadata>
<g transform="translate(0.000000,100.000000) scale(0.100000,-0.100000)"
fill="#000000" stroke="none">
<path d="M50 416 l0 -196 101 0 c98 0 101 1 130 29 24 25 29 38 29 80 0 40 -4
53 -24 68 -23 18 -23 20 -6 31 25 16 36 75 20 113 -19 44 -62 62 -162 67 l-88
4 0 -196z"/>
<path d="M395 588 c-44 -34 -65 -92 -65 -178 0 -128 52 -200 145 -200 93 0
145 72 145 200 0 86 -21 144 -65 178 -39 31 -121 31 -160 0z"/>
<path d="M715 588 c-44 -34 -65 -92 -65 -178 0 -128 52 -200 145 -200 93 0
145 72 145 200 0 86 -21 144 -65 178 -39 31 -121 31 -160 0z"/>
<path d="M1004 576 c-31 -31 -34 -39 -34 -92 0 -56 2 -59 46 -101 63 -58 46
-104 -20 -52 l-26 20 0 -64 c0 -59 2 -65 23 -71 103 -27 177 27 177 130 0 42
-4 51 -45 92 -25 24 -45 51 -45 58 0 21 31 17 57 -8 l23 -21 0 65 c0 74 -3 78
-77 78 -38 0 -50 -5 -79 -34z"/>
<path d="M1190 560 c0 -47 2 -50 25 -50 l25 0 0 -145 0 -145 60 0 60 0 0 145
0 145 30 0 c29 0 30 1 30 50 l0 50 -115 0 -115 0 0 -50z"/>
<path d="M1440 415 l0 -195 100 0 100 0 0 45 0 45 -45 0 c-41 0 -45 2 -45 25
0 23 4 25 40 25 l40 0 0 50 0 50 -40 0 c-36 0 -40 3 -40 25 0 23 4 25 45 25
l45 0 0 50 0 50 -100 0 -100 0 0 -195z"/>
<path d="M1670 560 c0 -47 2 -50 25 -50 l25 0 0 -145 0 -145 60 0 60 0 0 145
0 145 30 0 c29 0 30 1 30 50 l0 50 -115 0 -115 0 0 -50z"/>
<path d="M1910 478 c1 -155 9 -202 44 -236 32 -33 117 -42 164 -18 54 28 62
57 62 231 l0 155 -55 0 -55 0 0 -144 c0 -114 -3 -145 -14 -149 -8 -3 -17 -3
-20 0 -3 4 -6 71 -6 150 l0 143 -60 0 -60 0 0 -132z"/>
<path d="M2220 415 l0 -195 78 0 c126 0 177 43 189 162 15 144 -64 228 -214
228 l-53 0 0 -195z"/>
<path d="M2530 415 l0 -195 100 0 100 0 0 45 0 45 -45 0 c-41 0 -45 2 -45 25
0 23 4 25 40 25 l40 0 0 50 0 50 -40 0 c-36 0 -40 3 -40 25 0 23 4 25 45 25
l45 0 0 50 0 50 -100 0 -100 0 0 -195z"/>
<path d="M2794 576 c-31 -31 -34 -39 -34 -92 0 -56 2 -59 46 -101 63 -58 46
-104 -20 -52 l-26 20 0 -64 c0 -59 2 -65 23 -71 103 -27 177 27 177 130 0 42
-4 51 -45 92 -25 24 -45 51 -45 58 0 21 31 17 57 -8 l23 -21 0 65 c0 74 -3 78
-77 78 -38 0 -50 -5 -79 -34z"/>
</g>
</svg>
